/* XPM */
static char *CameraSnap_result_xpm[] = {
/* width height num_colors chars_per_pixel */
"    36    36      256            2",
/* colors */
"`` c #040204",
"`. c #848284",
"`# c #444244",
"`a c #c4c2c4",
"`b c #4c1214",
"`c c #646264",
"`d c #a4a2a4",
"`e c #642a2c",
"`f c #84464c",
"`g c #242224",
"`h c #e4e2e4",
"`i c #545254",
"`j c #741e24",
"`k c #8c7e7c",
"`l c #b4b2b4",
"`m c #2c1214",
"`n c #949294",
"`o c #d4d2d4",
"`p c #747274",
"`q c #7c2e34",
"`r c #6c5254",
"`s c #7c1a24",
"`t c #141214",
"`u c #bca2a4",
"`v c #f4f2f4",
"`w c #a49e9c",
"`x c #54363c",
"`y c #343634",
"`z c #544244",
"`A c #cccacc",
"`B c #6c6a6c",
"`C c #7c5254",
"`D c #5c5a5c",
"`E c #7c2224",
"`F c #acaaac",
"`G c #bcbabc",
"`H c #9c9a9c",
"`I c #dcdadc",
"`J c #1c1a1c",
"`K c #0c0a0c",
"`L c #8c8a8c",
"`M c #6c2a2c",
"`N c #2c2a2c",
"`O c #f4eaec",
"`P c #5c5254",
"`Q c #6c262c",
"`R c #7c7a7c",
"`S c #645a5c",
"`T c #fcfafc",
"`U c #5c4a4c",
"`V c #84222c",
"`W c #d4c6c4",
"`X c #4c2224",
"`Y c #6c6664",
"`Z c #b4a6a4",
"`0 c #5c3234",
"`1 c #944e54",
"`2 c #eceaec",
"`3 c #742224",
"`4 c #9c7a7c",
"`5 c #3c1214",
"`6 c #9c9694",
"`7 c #dcd2d4",
"`8 c #7c3a3c",
".` c #1c1214",
".. c #bcaeac",
".# c #ac9a9c",
".a c #5c3634",
".b c #443234",
".c c #5c4244",
".d c #d4ced4",
".e c #746e6c",
".f c #94565c",
".g c #c4bebc",
".h c #6c5e5c",
".i c #040604",
".j c #848684",
".k c #4c4e4c",
".l c #c4c6c4",
".m c #641a1c",
".n c #646664",
".o c #a4a6a4",
".p c #642e34",
".q c #844e54",
".r c #242624",
".s c #e4e6e4",
".t c #545654",
".u c #947a7c",
".v c #b4b6b4",
".w c #241e1c",
".x c #949694",
".y c #d4d6d4",
".z c #747674",
".A c #7c1e24",
".B c #141614",
".C c #fcf6f4",
".D c #543a3c",
".E c #3c3a3c",
".F c #544644",
".G c #cccecc",
".H c #6c6e6c",
".I c #5c5e5c",
".J c #7c222c",
".K c #acaeac",
".L c #bcbebc",
".M c #9c9e9c",
".N c #dcdedc",
".O c #1c1e1c",
".P c #0c0e0c",
".Q c #8c8e8c",
".R c #2c2e2c",
".S c #5c5654",
".T c #7c7e7c",
".U c #645e5c",
".V c #fcfefc",
".W c #84262c",
".X c #74222c",
".Y c #843a44",
".Z c #c4aeac",
".0 c #ac9e9c",
".1 c #945a5c",
".2 c #000000",
".3 c #000000",
".4 c #000000",
".5 c #000000",
".6 c #000000",
".7 c #000000",
".8 c #000000",
"#` c #000000",
"#. c #000000",
"## c #000000",
"#a c #000000",
"#b c #000000",
"#c c #000000",
"#d c #000000",
"#e c #000000",
"#f c #000000",
"#g c #000000",
"#h c #000000",
"#i c #000000",
"#j c #000000",
"#k c #000000",
"#l c #000000",
"#m c #000000",
"#n c #000000",
"#o c #000000",
"#p c #000000",
"#q c #000000",
"#r c #000000",
"#s c #000000",
"#t c #000000",
"#u c #000000",
"#v c #000000",
"#w c #000000",
"#x c #000000",
"#y c #000000",
"#z c #000000",
"#A c #000000",
"#B c #000000",
"#C c #000000",
"#D c #000000",
"#E c #000000",
"#F c #000000",
"#G c #000000",
"#H c #000000",
"#I c #000000",
"#J c #000000",
"#K c #000000",
"#L c #000000",
"#M c #000000",
"#N c #000000",
"#O c #000000",
"#P c #000000",
"#Q c #000000",
"#R c #000000",
"#S c #000000",
"#T c #000000",
"#U c #000000",
"#V c #000000",
"#W c #000000",
"#X c #000000",
"#Y c #000000",
"#Z c #000000",
"#0 c #000000",
"#1 c #000000",
"#2 c #000000",
"#3 c #000000",
"#4 c #000000",
"#5 c #000000",
"#6 c #000000",
"#7 c #000000",
"#8 c #000000",
"a` c #000000",
"a. c #000000",
"a# c #000000",
"aa c #000000",
"ab c #000000",
"ac c #000000",
"ad c #000000",
"ae c #000000",
"af c #000000",
"ag c #000000",
"ah c #000000",
"ai c #000000",
"aj c #000000",
"ak c #000000",
"al c #000000",
"am c #000000",
"an c #000000",
"ao c #000000",
"ap c #000000",
"aq c #000000",
"ar c #000000",
"as c #000000",
"at c #000000",
"au c #000000",
"av c #000000",
"aw c #000000",
"ax c #000000",
"ay c #000000",
"az c #000000",
"aA c #000000",
"aB c #000000",
"aC c #000000",
"aD c #000000",
"aE c #000000",
"aF c #000000",
"aG c #000000",
"aH c #000000",
"aI c #000000",
"aJ c #000000",
"aK c #000000",
"aL c #000000",
"aM c #000000",
"aN c #000000",
"aO c #000000",
"aP c #000000",
"aQ c #000000",
"aR c #000000",
"aS c #000000",
"aT c #000000",
"aU c #000000",
"aV c #000000",
"aW c #000000",
"aX c #000000",
"aY c #000000",
"aZ c #000000",
"a0 c #000000",
"a1 c #000000",
"a2 c #000000",
"a3 c #000000",
"a4 c #000000",
"a5 c #000000",
"a6 c #000000",
"a7 c #000000",
"a8 c #000000",
/* pixels */
"`s`s`s`e.e.H`p.H`p.H`p.H`p.H`p.H`p.H`p.H`p.H`p.H`p.H`p.H`p.H`p.H`p.H`p.H",
"`Q`s`s`s`x`p.H`p.H`p.H`p.H`p.H`p.H`p.H`p.H`p.H`p.H`p.H`p.H`p.H`p.H`p.H`p",
"`z.A`s`s.A`x`p.H`p.H.H`B`c.H.H`p.H`p.H`R.T`B.n.k`p.H`p.H`p.H`p.H`p.H`p.H",
".H`0`s`s`s`j`U.H`B`.`n.n.t`p.T.H`p`B.G`..x.G.G`a`p.H`p.H`p.H`p.H`p.H`p`p",
"`p.H.p`s`s`s`Q`c.d.x.H.o.G.d.L`d.n.L.M`.`A`A`A.l`L.H`p.H`p.H`p.H`p.H`p.H",
".H`p`B`Q`s`s`3`W.N.n.K`o.G.G`A.l`H.V`L`F.v.M.v`a.v.n.H`p.H`p.H`p.H`p.H`p",
"`p.H.e`S`3`j`C.V`R`n.G`a`G.L`A`A`l.V`n`G.M.H.M`2`G`p`p.H`p.H`p.H`p.H`p.H",
".H`p.H.H.F`Q`Z.V`B.l.g.M.Q`n.L`A`G.V.M.L`n``.l.V.v.H.H`p.H`p.H`p.H`p.H`p",
"`p.H`p`p.e`S`7.C`R.l`l.o.z.P.s.s`G.y.l`G.x.H.V.V`G.n.e.H`p.H`p.H`p.H`p.H",
".H`p.H.H`p.H.d.C.Q.l.v.o````.V.V.L.M`I`G`a`2.V`A.l.n.H.H`p.H`p.H`p.H`p`p",
"`p.H`p.H`p.H.M`2`d`A.g.M`t.M.V`v`a`p`d.G.G`o.G`A.j`t`J`g`c.H`p.H`p.H`p.H",
".H`p.H`p.H`p.H.s.g.l.l.L`l.V.V`A`G.t.t`H.v.l`l`R.O``.i.i.P.n.e.H`p.H`p.H",
"`p.H`p.H`p.H.e.Q`o.d.l`A`A.G`A`o.Q.t.w`J.t`K.k.R`t.B.t.z`F.G`p.H`p.H`p.H",
".H`p.H`p.H`p.H`c`n`h`o`A.l`A.y`n.t`t`c.T.Q`.`J.H.L`n`.`l`A.G`p.H`p.H`p.H",
"`p.H`p.H`p.H`p.n.r.n.o.g.G.v`R.B`Y`H.K.L.g.Q.z`.`G`F`p.v`A.G`p.H`p.H`p.H",
".H`p.H`p.H`p.H`p.H`y`g`J`t.O```t`l.l.v.M.j.z.U.k.T.z.I.o`H`L.H`p.H`p.H`p",
"`p.H`p.H`p.H`p.H`p.H.e.H`J`t``.i.z.Q`R.z.e.n`D.B.w.O.B.r.E.t.H`p.H`p.H`p",
".H`p.H`p.H`p.H`p.H`p.H`p.H.n.o`D`c.z`p`B.n`i`t`g.H`p.H.e.H`p.H`p.H`p.H`p",
"`p.H`p.H`p.H`p.H`p.H`p.H`p`c.o`L.B.n`c.O`m`b`X.U`p.H`p.H`p.H`p.H`p.H`p.H",
".H`p.H`p.H`p.H`p.H`p.H`p.H`p`J.B`K.t.``5.A`s.A.Y`r`B`p.H`p.H`p.H`p.H`p.H",
"`p.H`p.H`p.H`p.H`p.H.H`H.l`G`p````.B.h`e`s`s`s`s`V`1.u`B.H`p.H`p.H`p.H`p",
".H`p.H`p.H`p`B.H`H.L`A.M`y`g.E`y.k.j.K`l`4`q`s`s`s`s.A.1.Z.M`p`B.H`p.H`p",
"`p.H`p.H`R.x`l`l`..n.H`L`n.z.n`p`L.Q`B.n`B`k.q`E`s`s`s`s.J`f`w`l.x`R`p.H",
".H`p.H`p`o.N.x.H.k.H.n.n.j`l.L.v`.`B`c.H`c`B`..#.1`V`s`s`s`s`s`f.Z`A`p.H",
"`p.H`p.H.O.n`F`a.M.z`L`n`R.n`g.n`R`n.j.j`L.Q.T.n`g.c`8.A`s`s`s`s`s.m`x`Y",
".H`p.H`p.H.n.R.r`.`G.d.x`c.H`p.H.H`n.v`l`G`n.H`p.e`c`6`u`1`V`s`s`s`s`s.A",
"`p.H`p.H`p.e.H`p`i.r.n.x.v`d.z`d.Q`c.r`N.r`c.x.v`d.v.x.n`g.b`e`s`s`s`s`s",
".H`p.H`p.H`p.H.H`p.H.H.E.R.e.v`A.o`B.H`p.n`d`A.K`p`N.E.H.e.H.e`P`e`3`s`s",
"`p.H`p.H`p.H`p.H`p.H`p.e.H.I`N.H.Q`a`G.v`a.Q.H`N.I.H`p.H`p.H`p.H.e`B.D`Q",
".H`p.H`p.H`p.H`p.H`p.H`p.H`p.H.H`#.O`c.n.O`#.H`p.H`p.H`p.H`p.H`p.H`p.H.e",
"`p.H`p.H`p.H`p.H`p.H`p.H`p.H`p`p.H`p.n.n.e.H`p.H`p.H`p.H`p.H`p.H`p.H`p.H",
".H`p.H`p.H`p.H`p.H`p.H`p.H`p.H`p.H`p.H`p.H`p.H`p.H`p.H`p.H`p.H`p.H`p.H`p",
"`p.H`p.H`p.H`p.H`p.H`p.H`p.H`p.H`p.H`p.H`p.H`p.H`p.H`p.H`p.H`p.H`p.H`p.H",
".H`p.H`p.H`p.H`p.H`p.H`p.H`p.H`p.H`p.H`p.H`p.H`p.H`p.H`p.H`p.H`p.H`p.H`p",
"`p.H`p.H`p.H`p.H`p.H`p.H`p.H`p.H`p.H`p.H`p.H`p.H`p.H`p.H`p.H`p.H`p.H`p.H",
".H.H.H.H.H.H.H.H.H.H.H.H.H.H.H.H.H.H.H.H.H.H.H.H.H.H.H.H.H.e.H.H.H.H.H.e"
};
